<?xml version="1.0" encoding="utf-8"?>
<!-- Generator: Adobe Illustrator 23.0.1, SVG Export Plug-In . SVG Version: 6.00 Build 0)  -->
<svg version="1.1" id="Layer_1" xmlns="http://www.w3.org/2000/svg" xmlns:xlink="http://www.w3.org/1999/xlink" x="0px" y="0px"
	 viewBox="0 0 48 60" style="enable-background:new 0 0 48 60;" xml:space="preserve">
<style type="text/css">
	.st0{fill:#FFFFFF;}
</style>
<g>
	<path class="st0" d="M47.8,36.6c0.2-1.1,0.2-2.8-0.1-5.3c-0.7-6.3-1.1-12-1.1-17.4V1c0-0.6-0.4-1-1-1H31.1c-0.3,0-0.5,0.1-0.7,0.3
		S30.1,0.8,30.1,1l0.3,14.4c0.1,1.6,0.2,3.1,0.3,4.7c0,0.6,0.1,1.2,0.1,1.8c0.5,6.5-3.3,7.3-3.5,7.3c-0.1,0-0.1,0-0.2,0
		c-3,1-5.6,2.6-7.3,3.8c-2.4,1.7-5.1,3-7.9,4h-0.1l-0.3,0.1c-1,0.3-2.7,0.9-3,0.9s-0.7,0-1,0c-0.4,0-0.7,0-1.1,0c-2,0-6.4,0-6.4,3.8
		c0,2.2,2.2,4.6,7.1,4.6c0.1,0,0.3,0,0.4,0c2.1-0.1,4.3,0.2,6.3,0.8c1.3,0.4,2.6,0.7,3.7,0.7c0.3,0,0.6,0,0.8,0
		c3.1,0,5.3-1.3,5.8-1.6c1.2-0.5,2.9-0.7,5-0.7c2.5,0,4.9,0.3,6.2,0.5c1.4,0.2,2.5,0.3,3.6,0.3l0,0c4.2,0,5.7-1.1,6.1-1.5
		C48.7,42.4,48,37.8,47.8,36.6z M43.8,43.4c-0.1,0.1-0.1,0.1-0.2,0.2c0,0-1,0.9-4.7,0.9c-0.9,0-2-0.1-3.2-0.3
		c-1.6-0.2-4-0.5-6.5-0.5s-4.4,0.3-5.9,0.9c-0.1,0-0.1,0.1-0.2,0.1c0,0-2.3,1.5-5.5,1.3c-0.9-0.1-2.1-0.3-3.2-0.7
		c-2.1-0.6-4.2-0.9-6.3-0.9c-0.2,0-0.4,0-0.6,0c-0.1,0-0.2,0-0.4,0c-3.7,0-5.1-1.6-5.1-2.6C2,40.7,2.7,40,6.5,40c0.4,0,0.7,0,1.1,0
		s0.7,0,1.1,0c0.6,0,1.6-0.3,3.7-1.1l0.4-0.1c3-1,5.8-2.4,8.4-4.2c1.5-1.1,3.9-2.6,6.7-3.5c0.8-0.2,5.6-1.7,5-9.4
		c0-0.6-0.1-1.2-0.1-1.8c-0.1-1.5-0.2-3.1-0.3-4.6L32.1,2h12.6v11.9c0,5.5,0.4,11.3,1.1,17.6c0.4,3.1,0.2,4.3,0.1,4.8
		c0,0.2,0,0.3,0,0.5C45.8,36.9,46.9,41.3,43.8,43.4z"/>
	<path class="st0" d="M37.8,29.3c-0.6,0-1,0.4-1,1c0,2.4-2,4.4-4.4,4.4c-0.6,0-1,0.4-1,1s0.4,1,1,1c3.5,0,6.4-2.9,6.4-6.4
		C38.8,29.7,38.4,29.3,37.8,29.3z"/>
</g>
</svg>
