<?xml version="1.0" encoding="utf-8"?>
<!-- Generator: Adobe Illustrator 23.0.1, SVG Export Plug-In . SVG Version: 6.00 Build 0)  -->
<svg version="1.1"
	 id="Layer_1" xmlns:cc="http://creativecommons.org/ns#" xmlns:dc="http://purl.org/dc/elements/1.1/" xmlns:inkscape="http://www.inkscape.org/namespaces/inkscape" xmlns:rdf="http://www.w3.org/1999/02/22-rdf-syntax-ns#" xmlns:sodipodi="http://sodipodi.sourceforge.net/DTD/sodipodi-0.dtd" xmlns:svg="http://www.w3.org/2000/svg"
	 xmlns="http://www.w3.org/2000/svg" xmlns:xlink="http://www.w3.org/1999/xlink" x="0px" y="0px" viewBox="0 0 32 54"
	 style="enable-background:new 0 0 32 54;" xml:space="preserve">
<style type="text/css">
	.st0{fill:#FFFFFF;}
</style>
<g transform="translate(0,-952.36218)">
	<path class="st0" d="M16,952.4c-7.9,0-14.4,5.2-15.9,11.5c-0.3,1,0.4,2.2,1.4,2.5c1,0.3,2.2-0.5,2.4-1.5c1-4.2,6-8.5,12.1-8.5
		c3,0,6.1,1.1,8.4,2.9c2.2,1.8,3.6,4.3,3.6,7.1c0,3.4-0.7,5.2-1.8,6.5c-1,1.3-2.5,2.3-4.3,3.6c-1.8,1.3-3.9,3-5.4,5.8
		c-1.5,2.8-2.4,6.6-2.4,12.1c0,1,1,2,2,2c1,0,2-1,2-2c0-5,0.8-8.1,1.9-10.2c1.1-2.1,2.5-3.2,4.2-4.4c1.7-1.2,3.6-2.4,5.2-4.4
		s2.6-4.9,2.6-9c0-4.2-2.1-7.8-5.1-10.2C23.9,953.7,20,952.4,16,952.4z M16,1000.4c-1.7,0-3,1.3-3,3s1.3,3,3,3c1.7,0,3-1.3,3-3
		S17.7,1000.4,16,1000.4z"/>
</g>
</svg>
